<svg width="24" height="27" viewBox="0 0 24 27" fill="none" xmlns="http://www.w3.org/2000/svg">
<path d="M9 24.75H18C18.83 24.75 19.54 24.1875 19.84 23.3775L22.86 15.4462C22.95 15.1875 23 14.9175 23 14.625V12.375C23 11.1375 22.1 10.125 21 10.125H14.69L15.64 4.98375L15.67 4.62375C15.67 4.1625 15.5 3.735 15.23 3.43125L14.17 2.25L7.58 9.66375C7.22 10.0688 7 10.6313 7 11.25V22.5C7 23.7375 7.9 24.75 9 24.75ZM9 11.25L13.34 6.3675L12 12.375H21V14.625L18 22.5H9V11.25ZM1 11.25H5V24.75H1V11.25Z" fill="#8489A5"/>
</svg>
